<svg xmlns="http://www.w3.org/2000/svg" version="1.1" xmlns:xlink="http://www.w3.org/1999/xlink" xmlns:svgjs="http://svgjs.com/svgjs" width="512" height="512" x="0" y="0" viewBox="0 0 512.001 512.001" style="enable-background:new 0 0 512 512" xml:space="preserve" class=""><g><linearGradient id="a" x1="0" x2="512.001" y1="258" y2="258" gradientTransform="matrix(1 0 0 -1 0 514)" gradientUnits="userSpaceOnUse"><stop stop-opacity="1" stop-color="#42445a" offset="0"></stop><stop stop-opacity="1" stop-color="#001ef2" offset="0.003861003861003861"></stop><stop stop-opacity="1" stop-color="#42445a" offset="0.021"></stop><stop stop-opacity="1" stop-color="#f20000" offset="0.12355212355212356"></stop><stop stop-opacity="1" stop-color="#42445a" offset="0.293"></stop><stop stop-opacity="1" stop-color="#42445a" offset="0.554"></stop><stop stop-opacity="1" stop-color="#f2d900" offset="0.7335907335907336"></stop><stop stop-opacity="1" stop-color="#42445a" offset="0.796"></stop><stop stop-opacity="1" stop-color="#f2d900" offset="1"></stop></linearGradient><path d="M212.001 183c11.046 0 20 8.954 20 20s-8.954 20-20 20-20-8.954-20-20 8.955-20 20-20zm60 20c0 11.046 8.954 20 20 20s20-8.954 20-20-8.954-20-20-20-20 8.954-20 20zm80 0c0 11.046 8.954 20 20 20s20-8.954 20-20-8.954-20-20-20-20 8.954-20 20zm158.542 207.504a19.998 19.998 0 0 1-4.621 21.855 20 20 0 0 1-21.989 3.942l-107.301-47.3a230.144 230.144 0 0 1-41.547 11.551c-14.543 23.919-35.287 44.173-60.505 58.917-28.154 16.459-60.661 25.254-94.098 25.507-.491.036-.982.075-1.482.075-23.118 0-45.515-3.993-66.703-11.88l-84.229 37.13a19.989 19.989 0 0 1-21.988-3.942 19.998 19.998 0 0 1-4.621-21.855l29.212-72.262C10.564 384.865.001 353.053.001 319.525c0-53.673 27.835-103.502 74.792-134.598 4.331-47.819 26.659-92.167 63.991-126.335C180.067 20.809 234.835 0 293.001 0s112.935 20.809 154.217 58.593c41.777 38.235 64.783 89.213 64.783 143.543 0 8.991-.788 19.225-2.219 28.815-1.629 10.925-11.806 18.464-22.732 16.83-10.925-1.63-18.46-11.807-16.83-22.732 1.131-7.586 1.781-15.938 1.781-22.913 0-89.402-80.299-162.136-179-162.136s-179 72.734-179 162.136c0 78.301 71.927 162.136 179 162.136 26.604 0 52.216-5.172 76.124-15.373a20.002 20.002 0 0 1 15.917.095L455 379.833l-23.555-58.266c-4.14-10.241.806-21.898 11.047-26.038 10.24-4.142 21.898.807 26.038 11.046l42.013 103.929zm-228.905-6.501c-55.405-2.604-106.715-24.232-145.506-61.565-31.173-30.002-51.838-68.194-59.162-108.119-23.524 22.962-36.969 53.245-36.969 85.206 0 27.926 9.955 54.365 28.79 76.462a20.001 20.001 0 0 1 3.322 20.47l-15.109 37.375 46.837-20.646a19.991 19.991 0 0 1 15.916-.095c18.357 7.832 38.013 11.846 58.435 11.95.271-.011.537-.041.81-.041 39.4 0 76.624-15.392 102.636-40.997z" style="fill:url(#a);" fill=""></path></g></svg>